# xmcd
#
# Track frame offsets: 
#        150
#        23779
#        50436
#        73716
#        102498
#        122401
#        139296
#        156821
#        174551
#        200326
#        217727
#        237076
#        254705
#        279239
#        295139
#        313514
#
# Disc length: 4456 seconds
#
# Revision: 0
# Processed by: cddbd v1.5.2PL0 Copyright (c) Steve Scherf et al.
# Submitted via: ExactAudioCopy v0.99pb4
#
DISCID=e7116610
DTITLE=Imagination - The Very Best of Imagination
DYEAR=2003
DGENRE=Soul
TTITLE0=Music And Lights
TTITLE1=Body Talk
TTITLE2=In The Heat Of The Night
TTITLE3=Just An Illusion
TTITLE4=Flashback
TTITLE5=So Good So Right
TTITLE6=Shoo Be Doo Da Dabba Doobee (This Means War)
TTITLE7=Heart 'n Soul
TTITLE8=Changes
TTITLE9=I'll Always Love You
TTITLE10=New Dimension
TTITLE11=Rock Me Slow
TTITLE12=In And Out Of Love
TTITLE13=Follow Me
TTITLE14=Soul Street
TTITLE15=Backtrackin
EXTD=
EXTT0=
EXTT1=
EXTT2=
EXTT3=
EXTT4=
EXTT5=
EXTT6=
EXTT7=
EXTT8=
EXTT9=
EXTT10=
EXTT11=
EXTT12=
EXTT13=
EXTT14=
EXTT15=
PLAYORDER=
